# xmcd
#
# Track frame offsets: 
#        300
#        17023
#        31902
#        46986
#        61295
#        77760
#        96587
#        112688
#        129670
#
# Disc length: 1822 seconds
#
# Revision: 0
# Processed by: cddbd v1.5.2PL0 Copyright (c) Steve Scherf et al.
# Submitted via: ExactAudioCopy v1.0b1
#
DISCID=6d071a09
DTITLE=Bobby "Blue" Bland - Dreamer
DYEAR=1974
DGENRE=Soul Blues
TTITLE0=Ain't No Love In The Heart Of The City
TTITLE1=I Wouldn't Treat A Dog (The Way You Treated Me)
TTITLE2=Lovin' On Borrowed Time
TTITLE3=When You Come To The End Of Your Road
TTITLE4=I Ain't Gonna Be The First To Cry
TTITLE5=Dreamer
TTITLE6=Yolanda
TTITLE7=Twenty-Four Hour Blues
TTITLE8=A Cold Day In Hell
EXTD=
EXTT0=
EXTT1=
EXTT2=
EXTT3=
EXTT4=
EXTT5=
EXTT6=
EXTT7=
EXTT8=
PLAYORDER=
